<?xml version="1.0" standalone="no"?>
<!DOCTYPE svg PUBLIC "-//W3C//DTD SVG 20010904//EN"
 "http://www.w3.org/TR/2001/REC-SVG-20010904/DTD/svg10.dtd">
<svg version="1.0" xmlns="http://www.w3.org/2000/svg"
 width="1395.000000pt" height="453.000000pt" viewBox="0 0 1395.000000 453.000000"
 preserveAspectRatio="xMidYMid meet">

<g transform="translate(0.000000,453.000000) scale(0.100000,-0.100000)"
fill="#000000" stroke="none">
<path d="M1520 3180 l0 -800 145 0 145 0 0 665 0 665 630 0 630 0 0 135 0 135
-775 0 -775 0 0 -800z"/>
<path d="M4080 2230 l0 -1750 30 0 30 0 0 1750 0 1750 -30 0 -30 0 0 -1750z"/>
<path d="M7857 3620 c-357 -64 -637 -316 -733 -660 -28 -101 -26 -386 4 -494
120 -433 534 -702 1010 -656 246 23 427 104 584 261 129 129 211 279 244 447
18 92 21 282 5 372 -51 286 -223 515 -486 645 -140 70 -220 87 -415 91 -91 1
-187 -1 -213 -6z m373 -277 c115 -28 187 -70 280 -163 135 -135 182 -255 181
-464 -1 -303 -149 -519 -418 -613 -72 -25 -90 -27 -228 -27 -135 0 -158 3
-231 27 -44 15 -107 44 -140 65 -124 80 -231 230 -269 377 -22 83 -21 253 0
341 89 355 441 551 825 457z"/>
<path d="M12010 3619 c-91 -16 -244 -73 -321 -119 -88 -54 -227 -184 -281
-263 -87 -128 -132 -257 -147 -422 -31 -318 85 -609 316 -800 309 -255 822
-281 1163 -59 162 106 294 275 356 457 51 149 57 396 15 560 -68 260 -269 484
-526 588 -44 17 -105 38 -135 46 -68 18 -363 26 -440 12z m393 -281 c110 -30
183 -73 268 -158 126 -126 179 -262 179 -460 0 -125 -21 -217 -71 -319 -103
-209 -317 -331 -580 -331 -301 0 -530 159 -625 435 -24 70 -28 96 -28 200 0
139 15 212 71 325 65 134 209 255 360 304 120 39 294 41 426 4z"/>
<path d="M5080 3360 l0 -240 150 0 150 0 0 110 0 110 750 0 750 0 0 130 0 130
-900 0 -900 0 0 -240z"/>
<path d="M9220 2715 l0 -885 635 0 635 0 0 130 0 130 -485 0 -485 0 0 755 0
755 -150 0 -150 0 0 -885z"/>
<path d="M10740 2710 l0 -890 145 0 145 0 0 890 0 890 -145 0 -145 0 0 -890z"/>
<path d="M990 2195 l0 -1295 145 0 145 0 2 593 3 592 793 3 792 2 0 125 0 125
-792 2 -793 3 -3 443 -2 442 100 0 100 0 0 130 0 130 -245 0 -245 0 0 -1295z"/>
<path d="M1850 3360 l0 -130 775 0 775 0 0 130 0 130 -775 0 -775 0 0 -130z"/>
<path d="M5087 2883 c-4 -3 -7 -242 -7 -530 l0 -523 150 0 150 0 0 395 0 395
520 0 520 0 0 135 0 135 -663 0 c-365 0 -667 -3 -670 -7z"/>
<path d="M1520 1265 l0 -785 145 0 145 0 0 785 0 785 -145 0 -145 0 0 -785z"/>
<path d="M5082 1078 l3 -253 57 -3 58 -3 2 188 3 188 38 -150 c21 -82 43 -167
48 -188 l10 -38 71 3 71 3 48 180 47 180 1 -183 1 -183 58 3 57 3 3 253 2 253
-96 -3 -97 -3 -46 -177 c-25 -98 -48 -178 -51 -178 -3 0 -25 80 -50 178 l-46
177 -97 3 -97 3 2 -253z"/>
<path d="M6872 1278 c-11 -29 -52 -138 -91 -242 -39 -104 -71 -195 -71 -203 0
-11 15 -13 67 -11 l68 3 19 53 19 53 85 -3 85 -3 17 -50 17 -50 66 -3 c48 -2
67 1 67 9 0 7 -41 122 -91 256 l-92 243 -73 0 -73 0 -19 -52z m117 -160 c12
-34 21 -66 21 -70 0 -4 -21 -8 -46 -8 -33 0 -45 4 -41 13 2 6 13 38 23 70 10
31 19 57 20 57 1 0 12 -28 23 -62z"/>
<path d="M8210 1075 l0 -256 63 3 62 3 5 114 5 114 78 -116 77 -117 80 0 c44
0 80 3 80 6 0 3 -26 40 -58 82 -32 42 -74 100 -94 127 l-36 50 89 119 c49 66
89 121 89 123 0 2 -37 3 -82 3 l-83 0 -70 -107 -70 -107 -3 107 -3 107 -64 0
-65 0 0 -255z"/>
<path d="M9480 1075 l0 -256 148 3 147 3 3 53 3 52 -85 0 -86 0 0 45 0 44 78
3 77 3 3 53 3 52 -81 0 -81 0 3 48 3 47 78 3 77 3 0 49 0 50 -145 0 -145 0 0
-255z"/>
<path d="M10680 1080 l0 -250 65 0 65 0 0 95 c0 84 2 95 18 95 59 -1 72 -19
93 -127 l12 -63 69 0 c61 0 69 2 64 18 -2 9 -12 52 -21 95 -13 60 -23 82 -44
99 l-27 23 39 37 c38 36 39 39 35 93 -3 40 -11 62 -29 81 -41 45 -77 54 -214
54 l-125 0 0 -250z m218 134 c47 -33 15 -94 -50 -94 l-38 0 0 55 0 55 33 0
c18 0 43 -7 55 -16z"/>
</g>
</svg>
