<svg width="24" height="25" viewBox="0 0 24 25" fill="none" xmlns="http://www.w3.org/2000/svg">
<g id="Info">
<g id="Vector">
<path d="M12 2.24268C6.486 2.24268 2 6.72868 2 12.2427C2 17.7567 6.486 22.2427 12 22.2427C17.514 22.2427 22 17.7567 22 12.2427C22 6.72868 17.514 2.24268 12 2.24268ZM12 20.2427C7.589 20.2427 4 16.6537 4 12.2427C4 7.83168 7.589 4.24268 12 4.24268C16.411 4.24268 20 7.83168 20 12.2427C20 16.6537 16.411 20.2427 12 20.2427Z" fill="#12100E"/>
<path d="M11 11.8429C11 11.5115 11.2686 11.2429 11.6 11.2429H12.4C12.7314 11.2429 13 11.5115 13 11.8429V16.6429C13 16.9743 12.7314 17.2429 12.4 17.2429H11.6C11.2686 17.2429 11 16.9743 11 16.6429V11.8429ZM11 7.84292C11 7.51155 11.2686 7.24292 11.6 7.24292H12.4C12.7314 7.24292 13 7.51155 13 7.84292V8.64292C13 8.97429 12.7314 9.24292 12.4 9.24292H11.6C11.2686 9.24292 11 8.97429 11 8.64292V7.84292Z" fill="#12100E"/>
</g>
</g>
</svg>
